<?xml version="1.0" standalone="no"?>
<!DOCTYPE svg PUBLIC "-//W3C//DTD SVG 20010904//EN"
 "http://www.w3.org/TR/2001/REC-SVG-20010904/DTD/svg10.dtd">
<svg version="1.0" xmlns="http://www.w3.org/2000/svg"
 width="512.000000pt" height="512.000000pt" viewBox="0 0 512.000000 512.000000"
 preserveAspectRatio="xMidYMid meet">
<metadata>
Created by potrace 1.16, written by Peter Selinger 2001-2019
</metadata>
<g transform="translate(0.000000,512.000000) scale(0.100000,-0.100000)"
fill="#000000" stroke="none">
<path d="M800 5105 c-365 -73 -668 -356 -772 -720 l-23 -80 -3 -1898 c-3
-2109 -8 -1947 65 -2091 47 -93 152 -199 248 -248 135 -70 109 -68 939 -68
l746 0 0 200 0 199 -722 3 c-684 3 -725 4 -758 22 -49 26 -69 45 -94 91 l-21
40 -3 1683 -2 1682 400 0 400 0 0 400 0 401 1083 -3 1082 -3 40 -21 c46 -25
65 -45 91 -94 17 -32 19 -65 22 -357 l3 -323 200 0 199 0 0 346 c0 386 -3 411
-67 538 -48 96 -153 201 -249 249 -141 71 -52 67 -1465 66 -1007 -1 -1288 -4
-1339 -14z m-3 -782 c-2 -2 -84 -2 -181 -1 l-177 3 33 65 c44 88 170 214 258
258 l65 33 3 -177 c1 -97 1 -179 -1 -181z"/>
<path d="M2755 3581 c-205 -60 -367 -225 -420 -428 -13 -49 -15 -238 -15
-1351 0 -1436 -4 -1345 67 -1486 47 -93 152 -199 248 -248 136 -71 93 -68
1085 -68 990 0 945 -3 1084 67 96 48 201 153 249 249 71 141 67 50 67 1484 0
1434 4 1343 -67 1484 -48 96 -153 201 -249 249 -139 70 -93 67 -1090 66 -826
0 -904 -2 -959 -18z m1850 -407 c46 -25 65 -45 91 -94 18 -34 19 -83 19 -1280
l0 -1245 -21 -40 c-25 -46 -45 -65 -94 -91 -33 -18 -74 -19 -880 -19 -806 0
-847 1 -880 19 -49 26 -69 45 -94 91 l-21 40 0 1245 c0 1197 1 1246 19 1280
35 66 75 96 146 111 19 4 404 6 855 6 818 -2 820 -2 860 -23z"/>
<path d="M3120 2600 l0 -200 600 0 600 0 0 200 0 200 -600 0 -600 0 0 -200z"/>
<path d="M3213 1974 c-62 -37 -93 -95 -93 -174 0 -123 77 -200 200 -200 123 0
200 77 200 200 0 123 -77 200 -201 200 -51 0 -73 -5 -106 -26z"/>
<path d="M4013 1974 c-62 -37 -93 -95 -93 -174 0 -123 77 -200 200 -200 123 0
200 77 200 200 0 123 -77 200 -201 200 -51 0 -73 -5 -106 -26z"/>
<path d="M3213 1174 c-62 -37 -93 -95 -93 -174 0 -123 77 -200 200 -200 123 0
200 77 200 200 0 123 -77 200 -201 200 -51 0 -73 -5 -106 -26z"/>
<path d="M4013 1174 c-62 -37 -93 -95 -93 -174 0 -123 77 -200 200 -200 123 0
200 77 200 200 0 123 -77 200 -201 200 -51 0 -73 -5 -106 -26z"/>
<path d="M800 2960 l0 -200 600 0 600 0 0 200 0 200 -600 0 -600 0 0 -200z"/>
<path d="M800 2160 l0 -200 600 0 600 0 0 200 0 200 -600 0 -600 0 0 -200z"/>
<path d="M800 1360 l0 -200 600 0 600 0 0 200 0 200 -600 0 -600 0 0 -200z"/>
</g>
</svg>
